<svg width="18" height="17" viewBox="0 0 18 17" fill="none" xmlns="http://www.w3.org/2000/svg">
<path d="M13.3333 16.6667H4.16667V5.83333L10 0L11.0417 1.04167C11.1389 1.13889 11.2188 1.27083 11.2812 1.4375C11.3438 1.60417 11.375 1.76389 11.375 1.91667V2.20833L10.4583 5.83333H15.8333C16.2778 5.83333 16.6667 6 17 6.33333C17.3333 6.66667 17.5 7.05556 17.5 7.5V9.16667C17.5 9.26389 17.4861 9.36806 17.4583 9.47917C17.4306 9.59028 17.4028 9.69444 17.375 9.79167L14.875 15.6667C14.75 15.9444 14.5417 16.1806 14.25 16.375C13.9583 16.5694 13.6528 16.6667 13.3333 16.6667ZM5.83333 15H13.3333L15.8333 9.16667V7.5H8.33333L9.45833 2.91667L5.83333 6.54167V15ZM5.83333 6.54167V7.5V9.16667V15V6.54167ZM4.16667 5.83333V7.5H1.66667V15H4.16667V16.6667H0V5.83333H4.16667Z" fill="#ADAAAA"/>
</svg>
