<svg width="32" height="32" viewBox="0 0 32 32" fill="none" xmlns="http://www.w3.org/2000/svg">
<path d="M5.33325 24C5.33325 22.5855 5.89515 21.2289 6.89535 20.2288C7.89554 19.2286 9.2521 18.6667 10.6666 18.6667H21.3333C22.7477 18.6667 24.1043 19.2286 25.1045 20.2288C26.1047 21.2289 26.6666 22.5855 26.6666 24C26.6666 24.7072 26.3856 25.3855 25.8855 25.8856C25.3854 26.3857 24.7072 26.6667 23.9999 26.6667H7.99992C7.29267 26.6667 6.6144 26.3857 6.1143 25.8856C5.6142 25.3855 5.33325 24.7072 5.33325 24Z" stroke="#A3A3A3" stroke-width="2.66667" stroke-linejoin="round"/>
<path d="M16 13.3333C18.2091 13.3333 20 11.5425 20 9.33331C20 7.12417 18.2091 5.33331 16 5.33331C13.7909 5.33331 12 7.12417 12 9.33331C12 11.5425 13.7909 13.3333 16 13.3333Z" stroke="#A3A3A3" stroke-width="2.66667"/>
</svg>
