<svg width="32" height="32" viewBox="0 0 32 32" fill="none" xmlns="http://www.w3.org/2000/svg">
<path d="M4 17.3333C8.8 6.66668 23.2 6.66668 28 17.3333" stroke="#A3A3A3" stroke-width="2" stroke-linecap="round" stroke-linejoin="round"/>
<path d="M16 22.6667C15.4747 22.6667 14.9546 22.5632 14.4693 22.3622C13.984 22.1612 13.543 21.8665 13.1716 21.4951C12.8001 21.1237 12.5055 20.6827 12.3045 20.1974C12.1035 19.7121 12 19.192 12 18.6667C12 18.1414 12.1035 17.6213 12.3045 17.136C12.5055 16.6507 12.8001 16.2097 13.1716 15.8383C13.543 15.4668 13.984 15.1722 14.4693 14.9712C14.9546 14.7701 15.4747 14.6667 16 14.6667C17.0609 14.6667 18.0783 15.0881 18.8284 15.8383C19.5786 16.5884 20 17.6058 20 18.6667C20 19.7276 19.5786 20.745 18.8284 21.4951C18.0783 22.2453 17.0609 22.6667 16 22.6667Z" stroke="#A3A3A3" stroke-width="2" stroke-linecap="round" stroke-linejoin="round"/>
</svg>
