<svg width="15" height="15" viewBox="0 0 15 15" fill="none" xmlns="http://www.w3.org/2000/svg">
<path d="M10.1238 3.35767C10.1238 3.15792 10.2031 2.96634 10.3444 2.82509C10.4856 2.68385 10.6772 2.60449 10.877 2.60449C11.0767 2.60449 11.2683 2.68385 11.4095 2.82509C11.5508 2.96634 11.6301 3.15792 11.6301 3.35767C11.6301 3.55743 11.5508 3.74901 11.4095 3.89025C11.2683 4.0315 11.0767 4.11086 10.877 4.11086C10.6772 4.11086 10.4856 4.0315 10.3444 3.89025C10.2031 3.74901 10.1238 3.55743 10.1238 3.35767Z" fill="#99FF33"/>
<path fill-rule="evenodd" clip-rule="evenodd" d="M7.11106 3.5459C6.16222 3.5459 5.25224 3.92282 4.58131 4.59376C3.91037 5.26469 3.53345 6.17467 3.53345 7.12351C3.53345 8.07236 3.91037 8.98234 4.58131 9.65327C5.25224 10.3242 6.16222 10.7011 7.11106 10.7011C8.05991 10.7011 8.96989 10.3242 9.64082 9.65327C10.3118 8.98234 10.6887 8.07236 10.6887 7.12351C10.6887 6.17467 10.3118 5.26469 9.64082 4.59376C8.96989 3.92282 8.05991 3.5459 7.11106 3.5459ZM4.66322 7.12351C4.66322 6.47431 4.92112 5.85169 5.38018 5.39263C5.83924 4.93357 6.46186 4.67567 7.11106 4.67567C7.76027 4.67567 8.38289 4.93357 8.84195 5.39263C9.30101 5.85169 9.55891 6.47431 9.55891 7.12351C9.55891 7.77272 9.30101 8.39534 8.84195 8.8544C8.38289 9.31346 7.76027 9.57136 7.11106 9.57136C6.46186 9.57136 5.83924 9.31346 5.38018 8.8544C4.92112 8.39534 4.66322 7.77272 4.66322 7.12351Z" fill="#99FF33"/>
<path fill-rule="evenodd" clip-rule="evenodd" d="M11.0713 0.218937C8.43926 -0.0729789 5.78296 -0.0729789 3.15088 0.218937C1.63548 0.388403 0.411554 1.5822 0.233802 3.10513C-0.0779341 5.77488 -0.0779341 8.47184 0.233802 11.1416C0.411554 12.6645 1.63472 13.8583 3.15088 14.0278C5.783 14.3191 8.43922 14.3191 11.0713 14.0278C12.5867 13.8583 13.8107 12.6645 13.9884 11.1416C14.3002 8.47184 14.3002 5.77488 13.9884 3.10513C13.8107 1.5822 12.5875 0.388403 11.0713 0.218937ZM3.27591 1.34118C5.8249 1.05852 8.39732 1.05852 10.9463 1.34118C11.948 1.45416 12.7502 2.24424 12.8669 3.23694C13.1691 5.81908 13.1691 8.42764 12.8669 11.0098C12.8065 11.4956 12.5841 11.9469 12.2356 12.2908C11.8872 12.6346 11.4329 12.8509 10.9463 12.9048C8.39732 13.1875 5.8249 13.1875 3.27591 12.9048C2.78931 12.8509 2.33507 12.6346 1.98657 12.2908C1.63808 11.9469 1.41568 11.4956 1.35529 11.0098C1.05316 8.42764 1.05316 5.81908 1.35529 3.23694C1.41568 2.7511 1.63808 2.29981 1.98657 1.95596C2.33507 1.61212 2.78931 1.39504 3.27591 1.34118Z" fill="#99FF33"/>
</svg>
