<svg width="64" height="70" viewBox="0 0 64 70" fill="none" xmlns="http://www.w3.org/2000/svg">
<path d="M40.5513 58.297C43.8857 56.7013 47.3277 59.6091 48.8336 61.4885L48.8052 61.4149C47.9352 59.1605 46.3994 55.1808 50.0168 52.3397C50.5546 51.1695 53.3513 48.1908 55.7176 48.1908C55.144 46.9852 54.4484 43.9994 56.2555 41.7015C56.2555 36.0633 59.4824 34.7867 64 34.7867C59.2672 34.3612 53.1361 27.5528 57.3311 20.7444C48.9412 20.4252 47.5644 11.6381 48.9412 7.97861C37.8044 15.6887 32.5759 4.07796 32 0.557934C31.4241 4.07796 26.1956 15.6887 15.0588 7.97861C16.4356 11.6381 15.0588 20.4252 6.66891 20.7444C10.8639 27.5528 4.73277 34.3612 0 34.7867C4.51765 34.7867 7.74454 36.0633 7.74454 41.7015C9.5516 43.9994 8.85602 46.9852 8.28235 48.1908C10.6487 48.1908 13.4454 51.1695 13.9832 52.3397C17.6006 55.1808 16.0648 59.1605 15.1948 61.4149L15.1664 61.4885C16.6723 59.6091 20.1143 56.7013 23.4487 58.297C19.0387 53.2971 24.5244 47.3398 26.8908 41.7015C22.4807 46.7015 19.0387 54.4673 14.8437 50.6376C13.6784 49.5738 12.3697 47.9781 14.521 44.1483C12.9793 44.3965 9.70218 44.127 8.92773 41.0633C8.28235 37.0208 9.78823 35.6378 16.5647 34.7867C5.16304 33.9357 8.92773 23.9358 15.5966 25.106C14.1266 24.4323 11.8965 22.4039 14.7361 19.6806C17.5758 16.9572 20.1502 19.255 21.0824 20.7444L26.5681 27.4464L23.0185 19.6806C21.9429 17.482 21.1469 13.0424 26.5681 12.8722C27.5278 11.8879 29.9462 11.036 32 15.4156C34.0538 11.036 36.4723 11.8879 37.4319 12.8722C42.8531 13.0424 42.0571 17.482 40.9815 19.6806L37.4319 27.4464L42.9176 20.7444C43.8498 19.255 46.4242 16.9572 49.2639 19.6806C52.1035 22.4039 49.8734 24.4323 48.4034 25.106C55.0723 23.9358 58.837 33.9357 47.4353 34.7867C54.2118 35.6378 55.7176 37.0208 55.0723 41.0633C54.2978 44.127 51.0207 44.3965 49.479 44.1483C51.6303 47.9781 50.3216 49.5738 49.1563 50.6376C44.9613 54.4673 41.5193 46.7015 37.1092 41.7015C39.4756 47.3398 44.9613 53.2971 40.5513 58.297Z" fill="#99FF33"/>
<path d="M31.8386 17.021C31.8386 18.5103 34.0975 32.4466 44.4236 34.894C40.8095 34.8089 33.2371 38.51 33.2371 52.1274C33.4092 57.0635 36.6793 58.5103 38.2927 58.6167C33.0221 61.2762 33.6668 63.0847 32.1609 69.9995C30.6551 63.0849 31.3006 61.2762 26.03 58.6167C27.6435 58.5103 30.9136 57.0635 31.0857 52.1274C31.0857 38.51 23.5133 34.8089 19.8992 34.894C30.2252 32.4466 31.8386 18.5103 31.8386 17.021ZM32.1609 30.8511C32.1604 32.6381 29.3648 34.291 27.9666 34.894C29.3434 34.8943 31.408 37.5532 32.1609 39.0425C32.9138 37.5532 34.9794 34.8941 36.3562 34.894C34.958 34.291 32.1613 32.6381 32.1609 30.8511Z" fill="#99FF33"/>
</svg>
