<svg width="15" height="15" viewBox="0 0 15 15" fill="none" xmlns="http://www.w3.org/2000/svg">
<path d="M1.77769 3.19991C2.56316 3.19991 3.19991 2.56316 3.19991 1.77769C3.19991 0.992219 2.56316 0.355469 1.77769 0.355469C0.992219 0.355469 0.355469 0.992219 0.355469 1.77769C0.355469 2.56316 0.992219 3.19991 1.77769 3.19991Z" stroke="#99FF33" stroke-width="0.711111" stroke-linecap="round" stroke-linejoin="round"/>
<path d="M0.355469 5.33318H3.19991V13.8665H0.355469V5.33318ZM14.5777 13.8665H11.7332V8.88874C11.7332 8.51154 11.5834 8.14979 11.3167 7.88307C11.05 7.61636 10.6882 7.46651 10.311 7.46651C9.93383 7.46651 9.57208 7.61636 9.30536 7.88307C9.03864 8.14979 8.8888 8.51154 8.8888 8.88874V13.8665H6.04436V8.88874C6.04436 7.75715 6.49388 6.6719 7.29404 5.87175C8.09419 5.07159 9.17943 4.62207 10.311 4.62207C11.4426 4.62207 12.5279 5.07159 13.328 5.87175C14.1282 6.6719 14.5777 7.75715 14.5777 8.88874V13.8665Z" stroke="#99FF33" stroke-width="0.711111" stroke-linecap="round" stroke-linejoin="round"/>
</svg>
