<svg width="32" height="32" viewBox="0 0 32 32" fill="none" xmlns="http://www.w3.org/2000/svg">
<path opacity="0.987" fill-rule="evenodd" clip-rule="evenodd" d="M14.418 2.12199C15.868 1.95999 16.726 1.95999 18.284 2.12199C21.0419 2.53018 23.5984 3.80496 25.584 5.76199C24.2422 7.03026 22.9181 8.31705 21.612 9.62199C19.1107 7.50199 16.3187 7.01266 13.236 8.15399C10.9747 9.19399 9.4 10.8793 8.512 13.21C7.06088 12.1296 5.62866 11.0241 4.216 9.89399C4.11782 9.84231 4.00569 9.82339 3.896 9.83999C6.14 5.51332 9.64666 2.93999 14.416 2.11999" fill="#F44336"/>
<path opacity="0.997" fill-rule="evenodd" clip-rule="evenodd" d="M3.89202 9.84C4.00535 9.82266 4.11268 9.84066 4.21402 9.894C5.62668 11.0242 7.0589 12.1297 8.51002 13.21C8.28167 14.1181 8.13772 15.0454 8.08002 15.98C8.12935 16.884 8.27268 17.7713 8.51002 18.642L4.00002 22.232C2.03602 18.128 2.00002 13.9973 3.89202 9.84Z" fill="#FFC107"/>
<path opacity="0.999" fill-rule="evenodd" clip-rule="evenodd" d="M25.3701 26.58C23.9659 25.3415 22.4957 24.1798 20.9661 23.1C22.4995 22.0173 23.4301 20.532 23.7581 18.644H16.2441V13.426C20.5775 13.39 24.9088 13.4266 29.2381 13.536C30.0595 17.996 29.1108 22.0173 26.3921 25.6C26.0689 25.9436 25.7264 26.2707 25.3701 26.58Z" fill="#448AFF"/>
<path opacity="0.993" fill-rule="evenodd" clip-rule="evenodd" d="M8.51 18.644C10.15 22.72 13.1567 24.6227 17.53 24.352C18.7577 24.2099 19.9347 23.781 20.966 23.1C22.4967 24.1827 23.9647 25.3427 25.37 26.58C23.1433 28.581 20.3042 29.7682 17.316 29.948C16.6371 30.0023 15.9549 30.0023 15.276 29.948C10.1853 29.348 6.42667 26.776 4 22.232L8.51 18.644Z" fill="#43A047"/>
</svg>
