<svg width="24" height="24" viewBox="0 0 24 24" fill="none" xmlns="http://www.w3.org/2000/svg">
<path d="M3.74189 20.555C4.94189 22 7.17389 22 11.6399 22H12.3599C16.8259 22 19.0589 22 20.2589 20.555M3.74189 20.555C2.54189 19.109 2.95389 16.915 3.77689 12.525C4.36189 9.405 4.65389 7.844 5.76489 6.922M20.2589 20.555C21.4589 19.109 21.0469 16.915 20.2239 12.525C19.6389 9.405 19.3459 7.844 18.2349 6.922M18.2349 6.922C17.1249 6 15.5359 6 12.3609 6H11.6389C8.46389 6 6.87589 6 5.76489 6.922" stroke="white" stroke-width="1.5"/>
<path d="M9 6V5C9 4.20435 9.31607 3.44129 9.87868 2.87868C10.4413 2.31607 11.2044 2 12 2C12.7956 2 13.5587 2.31607 14.1213 2.87868C14.6839 3.44129 15 4.20435 15 5V6" stroke="white" stroke-width="1.5" stroke-linecap="round"/>
</svg>
