<svg width="32" height="32" viewBox="0 0 32 32" fill="none" xmlns="http://www.w3.org/2000/svg">
<path d="M22.6667 13.6666H22.3334V10.6666C22.3334 8.98694 21.6662 7.37603 20.4784 6.1883C19.2907 5.00057 17.6798 4.33331 16.0001 4.33331C14.3204 4.33331 12.7095 5.00057 11.5217 6.1883C10.334 7.37603 9.66675 8.98694 9.66675 10.6666V13.6666H9.33341C8.36095 13.6666 7.42832 14.053 6.74069 14.7406C6.05306 15.4282 5.66675 16.3609 5.66675 17.3333V24C5.66675 24.9724 6.05306 25.9051 6.74069 26.5927C7.42832 27.2803 8.36095 27.6666 9.33341 27.6666H22.6667C23.6392 27.6666 24.5718 27.2803 25.2595 26.5927C25.9471 25.9051 26.3334 24.9724 26.3334 24V17.3333C26.3334 16.3609 25.9471 15.4282 25.2595 14.7406C24.5718 14.053 23.6392 13.6666 22.6667 13.6666ZM11.6667 10.6666C11.6667 9.51737 12.1233 8.41517 12.936 7.60252C13.7486 6.78986 14.8508 6.33331 16.0001 6.33331C17.1494 6.33331 18.2516 6.78986 19.0642 7.60252C19.8769 8.41517 20.3334 9.51737 20.3334 10.6666V13.6666H11.6667V10.6666ZM24.3334 24C24.3334 24.442 24.1578 24.8659 23.8453 25.1785C23.5327 25.4911 23.1088 25.6666 22.6667 25.6666H9.33341C8.89139 25.6666 8.46746 25.4911 8.1549 25.1785C7.84234 24.8659 7.66675 24.442 7.66675 24V17.3333C7.66675 16.8913 7.84234 16.4674 8.1549 16.1548C8.46746 15.8422 8.89139 15.6666 9.33341 15.6666H22.6667C23.1088 15.6666 23.5327 15.8422 23.8453 16.1548C24.1578 16.4674 24.3334 16.8913 24.3334 17.3333V24Z" fill="#A3A3A3"/>
</svg>
