<svg width="28" height="22" viewBox="0 0 28 22" fill="none" xmlns="http://www.w3.org/2000/svg">
<path d="M1 5.28533L10.3067 11.4907C11.5907 12.3453 12.232 12.7733 12.9253 12.94C13.5387 13.0867 14.1773 13.0867 14.7893 12.94C15.4827 12.7733 16.124 12.3453 17.408 11.4907L26.7147 5.28533M7.4 21H20.3147C22.5547 21 23.6747 21 24.5307 20.564C25.2828 20.1803 25.8942 19.5684 26.2773 18.816C26.7147 17.96 26.7147 16.84 26.7147 14.6V7.4C26.7147 5.16 26.7147 4.04 26.2787 3.184C25.8952 2.43139 25.2833 1.81949 24.5307 1.436C23.6747 1 22.5547 1 20.3147 1H7.4C5.16 1 4.04 1 3.184 1.436C2.43188 1.81971 1.82047 2.43159 1.43733 3.184C1 4.04 1 5.16 1 7.4V14.6C1 16.84 1 17.96 1.436 18.816C1.81949 19.5686 2.43138 20.1805 3.184 20.564C4.04 21 5.16 21 7.4 21Z" stroke="#A3A3A3" stroke-width="2" stroke-linecap="round" stroke-linejoin="round"/>
</svg>
