<svg width="15" height="11" viewBox="0 0 15 11" fill="none" xmlns="http://www.w3.org/2000/svg">
<path fill-rule="evenodd" clip-rule="evenodd" d="M6.00381 2.68472C5.92573 2.63784 5.8366 2.61253 5.74554 2.61137C5.65448 2.61021 5.56473 2.63323 5.48548 2.67809C5.40622 2.72295 5.34029 2.78804 5.29442 2.86671C5.24854 2.94539 5.22437 3.03483 5.22437 3.1259V7.24268C5.22437 7.33375 5.24854 7.42319 5.29442 7.50186C5.34029 7.58053 5.40622 7.64562 5.48548 7.69048C5.56473 7.73534 5.65448 7.75837 5.74554 7.7572C5.8366 7.75604 5.92573 7.73073 6.00381 7.68386L9.43446 5.62547C9.51062 5.57974 9.57365 5.51507 9.61741 5.43776C9.66116 5.36045 9.68416 5.27312 9.68416 5.18429C9.68416 5.09545 9.66116 5.00813 9.61741 4.93082C9.57365 4.8535 9.51062 4.78884 9.43446 4.74311L6.00381 2.68472ZM8.16924 5.18429L6.25356 6.33356V4.03502L8.16924 5.18429Z" fill="#99FF33"/>
<path fill-rule="evenodd" clip-rule="evenodd" d="M10.5624 0.134777C8.26509 -0.0449256 5.95725 -0.0449256 3.65993 0.134777L2.12231 0.255536C1.66798 0.290951 1.23857 0.477381 0.902468 0.78513C0.566368 1.09288 0.342916 1.50425 0.267705 1.95371C-0.0892349 4.09245 -0.0892349 6.27557 0.267705 8.41431C0.342916 8.86377 0.566368 9.27514 0.902468 9.58289C1.23857 9.89064 1.66798 10.0771 2.12231 10.1125L3.65925 10.2332C5.9571 10.413 8.26524 10.413 10.5631 10.2332L12.1 10.1125C12.5544 10.0771 12.9838 9.89064 13.3199 9.58289C13.656 9.27514 13.8794 8.86377 13.9546 8.41431C14.3114 6.27564 14.3114 4.09238 13.9546 1.95371C13.8794 1.50425 13.656 1.09288 13.3199 0.78513C12.9838 0.477381 12.5544 0.290951 12.1 0.255536L10.5624 0.134777ZM3.74021 1.16123C5.98454 0.985635 8.23917 0.985635 10.4835 1.16123L12.0204 1.2813C12.4843 1.31767 12.8637 1.66553 12.9398 2.12387C13.2792 4.14985 13.2792 6.21817 12.9398 8.24415C12.9027 8.46709 12.792 8.67118 12.6253 8.82388C12.4587 8.97658 12.2458 9.06911 12.0204 9.08672L10.4835 9.20679C8.23917 9.38238 5.98454 9.38238 3.74021 9.20679L2.20328 9.08672C1.97795 9.06911 1.765 8.97658 1.59837 8.82388C1.43174 8.67118 1.32102 8.46709 1.28386 8.24415C0.94454 6.21817 0.94454 4.14985 1.28386 2.12387C1.32102 1.90093 1.43174 1.69684 1.59837 1.54414C1.765 1.39144 1.97795 1.29891 2.20328 1.2813L3.74021 1.16123Z" fill="#99FF33"/>
</svg>
