<svg width="24" height="24" viewBox="0 0 24 24" fill="none" xmlns="http://www.w3.org/2000/svg">
<path fill-rule="evenodd" clip-rule="evenodd" d="M3.80112 2.89492C5.17403 1.52991 7.43476 1.77246 8.5843 3.30894L10.008 5.20867C10.9443 6.45862 10.8608 8.20493 9.74963 9.30935L9.48114 9.57783C9.4507 9.69054 9.4476 9.80889 9.47212 9.92304C9.54319 10.3833 9.92787 11.358 11.5388 12.9599C13.1497 14.5618 14.1312 14.9454 14.5982 15.0176C14.7159 15.0412 14.8375 15.0378 14.9536 15.0074L15.4139 14.5494C16.4021 13.568 17.9183 13.3841 19.1411 14.0485L21.2958 15.2218C23.1425 16.2235 23.6084 18.7324 22.0968 20.2362L20.4937 21.8291C19.9883 22.3311 19.3092 22.7496 18.4812 22.8275C16.4393 23.0181 11.6821 22.7744 6.68118 17.8029C2.0142 13.1618 1.11848 9.11418 1.00454 7.11969C0.948138 6.11116 1.4242 5.25831 2.03112 4.6559L3.80112 2.89492ZM7.23057 4.32311C6.65862 3.55938 5.59368 3.49846 4.99353 4.09523L3.2224 5.85508C2.85013 6.2251 2.67189 6.63347 2.69445 7.0238C2.7847 8.60879 3.50669 12.2605 7.87472 16.6037C12.4571 21.159 16.6886 21.2955 18.3244 21.1421C18.6583 21.1116 18.99 20.9379 19.3002 20.6299L20.9021 19.0359C21.5542 18.3884 21.4109 17.2084 20.4881 16.7075L18.3334 15.5354C17.7378 15.2127 17.0406 15.3188 16.6074 15.7497L16.0941 16.2607L15.4962 15.6606C16.0941 16.2607 16.093 16.2619 16.0919 16.2619L16.0907 16.2641L16.0873 16.2675L16.0794 16.2743L16.0625 16.2901C16.0149 16.3343 15.9636 16.3743 15.9091 16.4097C15.8189 16.4694 15.6993 16.536 15.5492 16.5913C15.2446 16.7052 14.8408 16.7661 14.3422 16.6894C13.3641 16.5394 12.0679 15.8727 10.3453 14.1602C8.62378 12.4477 7.95143 11.1594 7.80026 10.1825C7.72242 9.68388 7.78447 9.28001 7.89954 8.97543C7.96287 8.80403 8.05354 8.64402 8.16803 8.50162L8.20413 8.46214L8.21992 8.44521L8.22669 8.43845L8.23007 8.43506L8.23233 8.43281L8.55722 8.11017C9.04005 7.62846 9.10774 6.83089 8.65311 6.22284L7.23057 4.32311Z" fill="#848484"/>
</svg>
