<svg width="15" height="15" viewBox="0 0 15 15" fill="none" xmlns="http://www.w3.org/2000/svg">
<path d="M10.124 3.35743C10.124 3.15767 10.2034 2.9661 10.3446 2.82485C10.4859 2.6836 10.6774 2.60425 10.8772 2.60425C11.077 2.60425 11.2685 2.6836 11.4098 2.82485C11.551 2.9661 11.6304 3.15767 11.6304 3.35743C11.6304 3.55719 11.551 3.74876 11.4098 3.89001C11.2685 4.03126 11.077 4.11061 10.8772 4.11061C10.6774 4.11061 10.4859 4.03126 10.3446 3.89001C10.2034 3.74876 10.124 3.55719 10.124 3.35743Z" fill="#99FF33"/>
<path fill-rule="evenodd" clip-rule="evenodd" d="M7.11131 3.54602C6.16246 3.54602 5.25248 3.92295 4.58155 4.59388C3.91062 5.26481 3.53369 6.17479 3.53369 7.12364C3.53369 8.07248 3.91062 8.98246 4.58155 9.65339C5.25248 10.3243 6.16246 10.7013 7.11131 10.7013C8.06015 10.7013 8.97013 10.3243 9.64106 9.65339C10.312 8.98246 10.6889 8.07248 10.6889 7.12364C10.6889 6.17479 10.312 5.26481 9.64106 4.59388C8.97013 3.92295 8.06015 3.54602 7.11131 3.54602ZM4.66347 7.12364C4.66347 6.47443 4.92136 5.85181 5.38042 5.39275C5.83948 4.93369 6.4621 4.67579 7.11131 4.67579C7.76052 4.67579 8.38313 4.93369 8.84219 5.39275C9.30125 5.85181 9.55915 6.47443 9.55915 7.12364C9.55915 7.77285 9.30125 8.39546 8.84219 8.85452C8.38313 9.31358 7.76052 9.57148 7.11131 9.57148C6.4621 9.57148 5.83948 9.31358 5.38042 8.85452C4.92136 8.39546 4.66347 7.77285 4.66347 7.12364Z" fill="#99FF33"/>
<path fill-rule="evenodd" clip-rule="evenodd" d="M11.0713 0.218937C8.43926 -0.0729789 5.78296 -0.0729789 3.15088 0.218937C1.63548 0.388403 0.411554 1.5822 0.233802 3.10513C-0.0779341 5.77488 -0.0779341 8.47184 0.233802 11.1416C0.411554 12.6645 1.63472 13.8583 3.15088 14.0278C5.783 14.3191 8.43922 14.3191 11.0713 14.0278C12.5867 13.8583 13.8107 12.6645 13.9884 11.1416C14.3002 8.47184 14.3002 5.77488 13.9884 3.10513C13.8107 1.5822 12.5875 0.388403 11.0713 0.218937ZM3.27591 1.34118C5.8249 1.05852 8.39732 1.05852 10.9463 1.34118C11.948 1.45416 12.7502 2.24424 12.8669 3.23694C13.1691 5.81908 13.1691 8.42764 12.8669 11.0098C12.8065 11.4956 12.5841 11.9469 12.2356 12.2908C11.8872 12.6346 11.4329 12.8509 10.9463 12.9048C8.39732 13.1875 5.8249 13.1875 3.27591 12.9048C2.78931 12.8509 2.33507 12.6346 1.98657 12.2908C1.63808 11.9469 1.41568 11.4956 1.35529 11.0098C1.05316 8.42764 1.05316 5.81908 1.35529 3.23694C1.41568 2.7511 1.63808 2.29981 1.98657 1.95596C2.33507 1.61212 2.78931 1.39504 3.27591 1.34118Z" fill="#99FF33"/>
</svg>
