<svg width="24" height="24" viewBox="0 0 24 24" fill="none" xmlns="http://www.w3.org/2000/svg">
<path fill-rule="evenodd" clip-rule="evenodd" d="M12 2.62731C7.81281 2.62731 4.28068 5.97345 4.56837 10.1407C4.60963 10.7383 4.67131 11.2586 4.75535 11.6715C5.17935 13.7543 6.51026 15.8234 8.00934 17.5799C9.49565 19.3214 11.0782 20.6762 11.8959 21.3333C11.9613 21.3858 12.0387 21.3858 12.1041 21.3333C12.9218 20.6762 14.5043 19.3214 15.9907 17.5799C17.4897 15.8234 18.8206 13.7543 19.2446 11.6715C19.3287 11.2586 19.3904 10.7383 19.4316 10.1407C19.7193 5.97345 16.1872 2.62731 12 2.62731ZM3.02115 10.2582C2.65409 4.94141 7.12259 1 12 1C16.8774 1 21.3459 4.94141 20.9789 10.2582C20.9349 10.895 20.8664 11.497 20.7617 12.0113C20.2534 14.5083 18.7089 16.8346 17.1464 18.6653C15.5712 20.511 13.9062 21.9351 13.0474 22.6252C12.4254 23.1249 11.5746 23.1249 10.9526 22.6252C10.0938 21.9351 8.42877 20.511 6.85358 18.6653C5.29114 16.8346 3.74659 14.5083 3.23828 12.0113C3.13359 11.497 3.06511 10.895 3.02115 10.2582Z" fill="#848484"/>
<path fill-rule="evenodd" clip-rule="evenodd" d="M12 9.13653C11.286 9.13653 10.7073 9.74367 10.7073 10.4926C10.7073 11.2416 11.286 11.8487 12 11.8487C12.714 11.8487 13.2927 11.2416 13.2927 10.4926C13.2927 9.74367 12.714 9.13653 12 9.13653ZM9.15599 10.4926C9.15599 8.84494 10.4293 7.50922 12 7.50922C13.5707 7.50922 14.844 8.84494 14.844 10.4926C14.844 12.1403 13.5707 13.476 12 13.476C10.4293 13.476 9.15599 12.1403 9.15599 10.4926Z" fill="#848484"/>
</svg>
