<svg width="24" height="24" viewBox="0 0 24 24" fill="none" xmlns="http://www.w3.org/2000/svg">
<path fill-rule="evenodd" clip-rule="evenodd" d="M12 4.6C9.50912 4.6 6.1164 4.81354 3.96194 4.97055C3.24645 5.0227 2.69231 5.58909 2.69231 6.28088V7.06261L11.3151 11.5918C11.741 11.8155 12.259 11.8155 12.6849 11.5918L21.3077 7.06261V6.28088C21.3077 5.58909 20.7536 5.0227 20.0381 4.97055C17.8836 4.81354 14.4909 4.6 12 4.6ZM21.3077 8.89295L13.5067 12.9904C12.5697 13.4826 11.4303 13.4826 10.4933 12.9904L2.69231 8.89295V17.3191C2.69231 18.0109 3.24645 18.5773 3.96194 18.6294C6.1164 18.7865 9.50912 19 12 19C14.4909 19 17.8836 18.7865 20.0381 18.6294C20.7536 18.5773 21.3077 18.0109 21.3077 17.3191V8.89295ZM3.83188 3.37529C5.98763 3.21818 9.43774 3 12 3C14.5623 3 18.0124 3.21818 20.1681 3.37529C21.7792 3.4927 23 4.76647 23 6.28088V17.3191C23 18.8335 21.7792 20.1073 20.1681 20.2247C18.0124 20.3818 14.5623 20.6 12 20.6C9.43774 20.6 5.98763 20.3818 3.83188 20.2247C2.22081 20.1073 1 18.8335 1 17.3191V6.28088C1 4.76647 2.22081 3.4927 3.83188 3.37529Z" fill="#848484"/>
</svg>
